<?xml version="1.0"?>
<svg width="92" height="32" xmlns="http://www.w3.org/2000/svg" xmlns:svg="http://www.w3.org/2000/svg">
 <g class="layer">
  <title>Layer 1</title>
  <path d="m10.99,31.58c-6.06,0 -10.99,-4.95 -10.99,-11.05c0,-6.09 4.93,-11.05 10.99,-11.05c6.06,0 10.98,4.96 10.98,11.05c0,6.1 -4.92,11.05 -10.98,11.05zm0,-21.04c-5.48,0 -9.94,4.48 -9.94,9.99c0,5.51 4.46,10 9.94,10c5.48,0 9.94,-4.49 9.94,-10c0,-5.51 -4.46,-9.99 -9.94,-9.99z" fill="#2196F3" id="svg_2"/>
  <path d="m18.96,21.02c-0.34,-1.27 -3.47,-1.41 -5.34,-0.94c-0.98,0.24 -1.97,0.56 -3,0.75c0.75,0.67 1.56,1.31 2.72,1.46c2.88,0.39 4.67,-0.52 5.62,-1.27z" fill="#2196F3" id="svg_3"/>
  <path d="m13.34,22.29c-1.16,-0.15 -1.97,-0.79 -2.72,-1.46c-1.17,-1.04 -2.21,-2.17 -4.24,-1.75c-3.24,0.68 -3.67,4.53 -1.17,7c1.08,1.13 2.45,1.92 3.97,2.28c1.51,0.35 3.09,0.26 4.55,-0.28c1.46,-0.54 2.73,-1.49 3.66,-2.74c0.93,-1.26 1.48,-2.76 1.57,-4.32c-0.95,0.75 -2.74,1.66 -5.62,1.27z" fill="#673AB7" id="svg_4"/>
  <path d="m15.03,13.96c-0.4,0.87 3.2,1.84 3.63,4.73c0.21,-2.85 -3.13,-5.81 -3.63,-4.73z" fill="#2196F3" id="svg_5"/>
  <path d="m7.47,17.59c0.65,-0.27 0.95,-1.02 0.68,-1.67c-0.26,-0.65 -1.01,-0.96 -1.66,-0.69c-0.65,0.27 -0.95,1.02 -0.69,1.67c0.27,0.65 1.02,0.96 1.67,0.69z" fill="#673AB7" id="svg_6"/>
  <path d="m10.35,14.08c0.31,-0.31 0.31,-0.8 0,-1.11c-0.3,-0.3 -0.79,-0.3 -1.09,0c-0.31,0.31 -0.31,0.8 0,1.11c0.3,0.31 0.79,0.31 1.09,0z" fill="#2196F3" id="svg_7"/>
  <path d="m13.1,9.05c1.12,-3.34 0.37,-6 -1.94,-7.27c-1.58,0.33 -2.51,1.09 -3.03,2.15c3.09,-0.25 5.05,1.7 4.97,5.12z" fill="#2196F3" id="svg_8"/>
  <path d="m25.7,6.14c-5.56,-2.01 -9.07,-1.32 -9.62,3.25c3.18,3.31 6.39,1.72 9.62,-3.25z" fill="#2196F3" id="svg_9"/>
  <path d="m21.28,4.33c0.25,-1.11 0.39,-2.42 0.41,-3.91c-5.77,1.29 -8.37,3.76 -6.41,7.92c0.1,0.02 0.2,0.04 0.29,0.06c0.46,-3.26 2.48,-4.46 5.71,-4.07z" fill="#2196F3" id="svg_10"/>
  <text fill="#000000" font-family="Helvetica" font-size="25" id="svg_11" letter-spacing="0" stroke-width="0" text-anchor="middle" textLength="0" transform="matrix(1 0 0 1 0 0) matrix(0.640658 0 0 0.578412 16.3732 2.46065)" x="72.1" xml:space="preserve" y="28.93">AMNA&#x27;S</text>
  <text fill="#000000" font-family="Monospace" font-size="7" id="svg_12" letter-spacing="1" stroke-width="0" text-anchor="middle" transform="matrix(0.875443 0 0 1 7.97002 0)" word-spacing="0" x="62.86" xml:space="preserve" y="28.13">Makeup Studio</text>
 </g>

</svg>